v -0.100000 -0.100000 0.000000
v -0.100000 -0.050000 0.000000
v -0.100000 0.000000 0.000000
v -0.100000 0.050000 0.000000
v -0.100000 0.100000 0.000000
v -0.050000 -0.100000 0.000000
v -0.050000 -0.050000 0.000000
v -0.050000 0.000000 0.000000
v -0.050000 0.050000 0.000000
v -0.050000 0.100000 0.000000
v 0.000000 -0.100000 0.000000
v 0.000000 -0.050000 0.000000
v 0.000000 0.000000 0.000000
v 0.000000 0.050000 0.000000
v 0.000000 0.100000 0.000000
v 0.050000 -0.100000 0.000000
v 0.050000 -0.050000 0.000000
v 0.050000 0.000000 0.000000
v 0.050000 0.050000 0.000000
v 0.050000 0.100000 0.000000
v 0.100000 -0.100000 0.000000
v 0.100000 -0.050000 0.000000
v 0.100000 0.000000 0.000000
v 0.100000 0.050000 0.000000
v 0.100000 0.100000 0.000000
f 1 6 7
f 1 7 2
f 2 7 3
f 7 8 3
f 3 8 9
f 3 9 4
f 4 9 5
f 9 10 5
f 6 11 7
f 11 12 7
f 7 12 13
f 7 13 8
f 8 13 9
f 13 14 9
f 9 14 15
f 9 15 10
f 11 16 17
f 11 17 12
f 12 17 13
f 17 18 13
f 13 18 19
f 13 19 14
f 14 19 15
f 19 20 15
f 16 21 17
f 21 22 17
f 17 22 23
f 17 23 18
f 18 23 19
f 23 24 19
f 19 24 25
f 19 25 20
